<?xml version="1.0" encoding="iso-8859-1"?>
<!-- Uploaded to: SVG Repo, www.svgrepo.com, Generator: SVG Repo Mixer Tools -->
<svg version="1.1" id="Layer_1" xmlns="http://www.w3.org/2000/svg" xmlns:xlink="http://www.w3.org/1999/xlink" 
	 viewBox="0 0 512 512" xml:space="preserve">
<circle style="fill:#263A7A;" cx="256" cy="256" r="256"/>
<path style="fill:#121149;" d="M412.875,163.483L99.125,372.65l138.699,138.699c6.006,0.422,12.064,0.65,18.177,0.65
	c139.204,0,252.456-111.106,255.917-249.475L412.875,163.483z"/>
<rect x="99.125" y="163.478" style="fill:#FFC61B;" width="313.751" height="209.161"/>
<rect x="256.293" y="163.478" style="fill:#D48B07;" width="156.582" height="209.161"/>
<polygon style="fill:#FFEDB5;" points="412.875,163.483 256,268.067 99.125,163.483 "/>
<polygon style="fill:#FDE085;" points="256.288,163.483 256.288,267.876 412.875,163.483 "/>
<path style="fill:#940030;" d="M266.343,239.623c0-6.137,7.699-10.983,9.497-16.52c1.864-5.739-1.452-14.172,2.024-18.949
	c3.512-4.825,12.579-4.26,17.405-7.771c4.777-3.477,7.023-12.295,12.762-14.158c5.537-1.798,12.512,3.956,18.649,3.956
	c6.137,0,13.112-5.756,18.649-3.956c5.739,1.864,7.985,10.681,12.762,14.158c4.825,3.512,13.893,2.946,17.405,7.771
	c3.477,4.777,0.16,13.21,2.024,18.949c1.798,5.537,9.497,10.383,9.497,16.52c0,6.137-7.699,10.983-9.497,16.52
	c-1.864,5.739,1.452,14.172-2.024,18.949c-3.512,4.825-12.579,4.26-17.405,7.771c-4.777,3.477-7.023,12.295-12.762,14.158
	c-5.537,1.798-12.512-3.958-18.649-3.958c-6.137,0-13.112,5.756-18.649,3.956c-5.739-1.864-7.985-10.681-12.762-14.158
	c-4.825-3.512-13.893-2.946-17.405-7.771c-3.477-4.777-0.16-13.21-2.024-18.949C274.042,250.606,266.343,245.76,266.343,239.623z"/>
<circle style="fill:#E03A00;" cx="326.68" cy="239.623" r="36.202"/>
</svg>